Recursive-Mono Linear Light.ufo
<glyph name="exclam" format="2">
  <advance width="600"/>
  <unicode hex="0021"/>
  <outline>
    <contour>
      <point x="323" y="240" type="line"/>
      <point x="326" y="324"/>
      <point x="329" y="395"/>
      <point x="332" y="482" type="curve"/>
      <point x="332" y="689" type="line" smooth="yes"/>
      <point x="332" y="696"/>
      <point x="328" y="700"/>
      <point x="321" y="700" type="curve" smooth="yes"/>
      <point x="301" y="700"/>
      <point x="292" y="700"/>
      <point x="272" y="700" type="curve"/>
      <point x="272" y="662"/>
      <point x="272" y="627"/>
      <point x="272" y="590" type="curve" smooth="yes"/>
      <point x="272" y="482" type="line"/>
      <point x="278" y="257"/>
      <point x="279" y="247"/>
      <point x="282" y="243" type="curve" smooth="yes"/>
      <point x="284" y="241"/>
      <point x="286" y="240"/>
      <point x="290" y="240" type="curve" smooth="yes"/>
    </contour>
    <component base="period"/>
  </outline>
</glyph>
<glyph name="comma" format="2">
  <advance width="600"/>
  <unicode hex="002C"/>
  <outline>
    <contour>
      <point x="228" y="-200" type="curve" smooth="yes"/>
      <point x="233" y="-200"/>
      <point x="236" y="-199"/>
      <point x="238" y="-192" type="curve"/>
      <point x="279" y="-84"/>
      <point x="319" y="26"/>
      <point x="360" y="136" type="curve"/>
      <point x="363" y="145"/>
      <point x="360" y="150"/>
      <point x="352" y="150" type="curve" smooth="yes"/>
      <point x="317" y="150"/>
      <point x="297" y="150"/>
      <point x="256" y="150" type="curve"/>
      <point x="232" y="34"/>
      <point x="208" y="-84"/>
      <point x="184" y="-200" type="curve"/>
      <point x="196" y="-200"/>
      <point x="209" y="-200"/>
    </contour>
  </outline>
</glyph>
<glyph name="equal" format="2">
  <advance width="600"/>
  <unicode hex="003D"/>
  <outline>
    <contour>
      <point x="76" y="450" type="line"/>
      <point x="76" y="437"/>
      <point x="76" y="424"/>
      <point x="76" y="411" type="curve" smooth="yes"/>
      <point x="76" y="404"/>
      <point x="80" y="400"/>
      <point x="87" y="400" type="curve"/>
      <point x="524" y="400" type="line"/>
      <point x="524" y="413"/>
      <point x="524" y="426"/>
      <point x="524" y="439" type="curve" smooth="yes"/>
      <point x="524" y="446"/>
      <point x="520" y="450"/>
      <point x="513" y="450" type="curve" smooth="yes"/>
    </contour>
    <contour>
      <point x="76" y="200" type="line"/>
      <point x="76" y="187"/>
      <point x="76" y="174"/>
      <point x="76" y="161" type="curve" smooth="yes"/>
      <point x="76" y="154"/>
      <point x="80" y="150"/>
      <point x="87" y="150" type="curve"/>
      <point x="524" y="150" type="line"/>
      <point x="524" y="163"/>
      <point x="524" y="176"/>
      <point x="524" y="189" type="curve" smooth="yes"/>
      <point x="524" y="196"/>
      <point x="520" y="200"/>
      <point x="513" y="200" type="curve" smooth="yes"/>
    </contour>
  </outline>
</glyph>
<glyph name="question" format="2">
  <advance width="600"/>
  <unicode hex="003F"/>
  <outline>
    <contour>
      <point x="346" y="-5" type="curve"/>
      <point x="346" y="104" type="line" smooth="yes"/>
      <point x="346" y="111"/>
      <point x="342" y="115"/>
      <point x="335" y="115" type="curve" smooth="yes"/>
      <point x="305" y="115"/>
      <point x="252" y="115"/>
      <point x="222" y="115" type="curve"/>
      <point x="222" y="6" type="line" smooth="yes"/>
      <point x="222" y="-1"/>
      <point x="226" y="-5"/>
      <point x="233" y="-5" type="curve" smooth="yes"/>
      <point x="263" y="-5"/>
      <point x="316" y="-5"/>
    </contour>
    <contour>
      <point x="300" y="720" type="curve" smooth="yes"/>
      <point x="216" y="720"/>
      <point x="136" y="691"/>
      <point x="90" y="645" type="curve" smooth="yes"/>
      <point x="88" y="643"/>
      <point x="87" y="641"/>
      <point x="87" y="637" type="curve" smooth="yes"/>
      <point x="87" y="622"/>
      <point x="87" y="608"/>
      <point x="87" y="593" type="curve"/>
      <point x="99" y="593" type="line"/>
      <point x="170" y="652"/>
      <point x="226" y="673"/>
      <point x="300" y="673" type="curve" smooth="yes"/>
      <point x="411" y="673"/>
      <point x="465" y="633"/>
      <point x="465" y="557" type="curve"/>
      <point x="465" y="548"/>
      <point x="465" y="539"/>
      <point x="465" y="530" type="curve" smooth="yes"/>
      <point x="465" y="487"/>
      <point x="444" y="465"/>
      <point x="387" y="426" type="curve" smooth="yes"/>
      <point x="343" y="396" type="line" smooth="yes"/>
      <point x="267" y="345"/>
      <point x="250" y="313"/>
      <point x="250" y="255" type="curve" smooth="yes"/>
      <point x="250" y="247" type="line" smooth="yes"/>
      <point x="250" y="240"/>
      <point x="254" y="236"/>
      <point x="261" y="236" type="curve" smooth="yes"/>
      <point x="300" y="236" type="line"/>
      <point x="300" y="245" type="line" smooth="yes"/>
      <point x="300" y="294"/>
      <point x="306" y="309"/>
      <point x="378" y="360" type="curve" smooth="yes"/>
      <point x="422" y="391" type="line" smooth="yes"/>
      <point x="488" y="437"/>
      <point x="515" y="467"/>
      <point x="515" y="531" type="curve" smooth="yes"/>
      <point x="515" y="561" type="line" smooth="yes"/>
      <point x="515" y="657"/>
      <point x="440" y="720"/>
    </contour>
  </outline>
</glyph>
<glyph name="P" format="2">
  <advance width="600"/>
  <unicode hex="0050"/>
  <outline>
    <contour>
      <point x="150" y="0" type="curve"/>
      <point x="150" y="32"/>
      <point x="150" y="65"/>
      <point x="150" y="100" type="curve" smooth="yes"/>
      <point x="150" y="264"/>
      <point x="150" y="430"/>
      <point x="150" y="595" type="curve" smooth="yes"/>
      <point x="150" y="620"/>
      <point x="150" y="644"/>
      <point x="150" y="669" type="curve"/>
      <point x="155" y="680" type="line"/>
      <point x="100" y="680" type="line"/>
      <point x="100" y="457"/>
      <point x="100" y="234"/>
      <point x="100" y="11" type="curve" smooth="yes"/>
      <point x="100" y="4"/>
      <point x="104" y="0"/>
      <point x="111" y="0" type="curve" smooth="yes"/>
      <point x="124" y="0"/>
      <point x="137" y="0"/>
    </contour>
    <contour>
      <point x="30" y="700" type="curve"/>
      <point x="30" y="688"/>
      <point x="30" y="676"/>
      <point x="30" y="664" type="curve"/>
      <point x="30" y="657"/>
      <point x="34" y="653"/>
      <point x="41" y="653" type="curve" smooth="yes"/>
      <point x="131" y="653"/>
      <point x="220" y="653"/>
      <point x="310" y="653" type="curve"/>
      <point x="378" y="653"/>
      <point x="424" y="640"/>
      <point x="451" y="613" type="curve" smooth="yes"/>
      <point x="473" y="592"/>
      <point x="483" y="563"/>
      <point x="483" y="524" type="curve" smooth="yes"/>
      <point x="483" y="455" type="line" smooth="yes"/>
      <point x="483" y="364"/>
      <point x="427" y="315"/>
      <point x="315" y="315" type="curve" smooth="yes"/>
      <point x="254" y="315"/>
      <point x="193" y="315"/>
      <point x="132" y="315" type="curve"/>
      <point x="132" y="265" type="line" smooth="yes"/>
      <point x="143" y="268" type="line"/>
      <point x="201" y="268"/>
      <point x="260" y="268"/>
      <point x="318" y="268" type="curve" smooth="yes"/>
      <point x="454" y="268"/>
      <point x="535" y="336"/>
      <point x="535" y="451" type="curve" smooth="yes"/>
      <point x="535" y="519" type="line" smooth="yes"/>
      <point x="535" y="672"/>
      <point x="423" y="700"/>
      <point x="312" y="700" type="curve"/>
      <point x="218" y="700"/>
      <point x="124" y="700"/>
    </contour>
  </outline>
</glyph>
<glyph name="T" format="2">
  <advance width="600"/>
  <unicode hex="0054"/>
  <anchor x="300" y="711" name="top"/>
  <anchor x="300" y="-1" name="bottom"/>
  <outline>
    <contour>
      <point x="60" y="700" type="line"/>
      <point x="60" y="687"/>
      <point x="60" y="677"/>
      <point x="60" y="664" type="curve" smooth="yes"/>
      <point x="60" y="657"/>
      <point x="64" y="653"/>
      <point x="71" y="653" type="curve" smooth="yes"/>
      <point x="540" y="653" type="line"/>
      <point x="540" y="666"/>
      <point x="540" y="676"/>
      <point x="540" y="689" type="curve" smooth="yes"/>
      <point x="540" y="696"/>
      <point x="536" y="700"/>
      <point x="529" y="700" type="curve"/>
    </contour>
    <contour>
      <point x="325" y="0" type="curve"/>
      <point x="325" y="32"/>
      <point x="325" y="65"/>
      <point x="325" y="100" type="curve"/>
      <point x="325" y="231"/>
      <point x="325" y="363"/>
      <point x="325" y="494" type="curve"/>
      <point x="325" y="552"/>
      <point x="325" y="611"/>
      <point x="325" y="669" type="curve" smooth="yes"/>
      <point x="331" y="680" type="line"/>
      <point x="275" y="680" type="line"/>
      <point x="275" y="457"/>
      <point x="275" y="234"/>
      <point x="275" y="11" type="curve" smooth="yes"/>
      <point x="275" y="4"/>
      <point x="279" y="0"/>
      <point x="286" y="0" type="curve" smooth="yes"/>
      <point x="299" y="0"/>
      <point x="312" y="0"/>
    </contour>
  </outline>
</glyph>
<glyph name="Y" format="2">
  <advance width="600"/>
  <unicode hex="0059"/>
  <anchor x="300" y="711" name="top"/>
  <anchor x="300" y="730" name="hook"/>
  <anchor x="300" y="-1" name="bottom"/>
  <anchor x="300" y="-142" name="dot"/>
  <outline>
    <contour>
      <point x="325" y="0" type="curve"/>
      <point x="325" y="32"/>
      <point x="325" y="65"/>
      <point x="325" y="100" type="curve"/>
      <point x="325" y="170"/>
      <point x="325" y="250"/>
      <point x="325" y="320" type="curve"/>
      <point x="275" y="320" type="line"/>
      <point x="275" y="217"/>
      <point x="275" y="114"/>
      <point x="275" y="11" type="curve" smooth="yes"/>
      <point x="275" y="4"/>
      <point x="279" y="0"/>
      <point x="286" y="0" type="curve" smooth="yes"/>
      <point x="299" y="0"/>
      <point x="312" y="0"/>
    </contour>
    <contour>
      <point x="41" y="700" type="curve"/>
      <point x="120" y="560"/>
      <point x="198" y="421"/>
      <point x="277" y="281" type="curve"/>
      <point x="280" y="278"/>
      <point x="287" y="277"/>
      <point x="321" y="277" type="curve"/>
      <point x="398" y="413"/>
      <point x="477" y="551"/>
      <point x="554" y="687" type="curve"/>
      <point x="557" y="694"/>
      <point x="552" y="700"/>
      <point x="548" y="700" type="curve"/>
      <point x="534" y="700"/>
      <point x="519" y="700"/>
      <point x="505" y="700" type="curve"/>
      <point x="417" y="542"/>
      <point x="378" y="474"/>
      <point x="284" y="296" type="curve"/>
      <point x="324" y="345" type="line"/>
      <point x="274" y="345" type="line"/>
      <point x="313" y="299" type="line"/>
      <point x="225" y="472"/>
      <point x="190" y="538"/>
      <point x="104" y="690" type="curve"/>
      <point x="101" y="696"/>
      <point x="98" y="700"/>
      <point x="87" y="700" type="curve" smooth="yes"/>
      <point x="72" y="700"/>
      <point x="56" y="700"/>
    </contour>
  </outline>
</glyph>
<glyph name="asciicircum" format="2">
  <advance width="600"/>
  <unicode hex="005E"/>
  <outline>
    <contour>
      <point x="253" y="750" type="curve"/>
      <point x="179" y="612"/>
      <point x="89" y="443"/>
      <point x="67" y="402" type="curve" smooth="yes"/>
      <point x="60" y="389"/>
      <point x="59" y="386"/>
      <point x="59" y="382" type="curve" smooth="yes"/>
      <point x="59" y="378"/>
      <point x="62" y="376"/>
      <point x="66" y="376" type="curve" smooth="yes"/>
      <point x="110" y="376" type="line"/>
      <point x="180" y="506"/>
      <point x="211" y="566"/>
      <point x="291" y="715" type="curve"/>
      <point x="261" y="700" type="line"/>
      <point x="315" y="700" type="line" smooth="yes"/>
      <point x="298" y="708" type="line"/>
      <point x="370" y="574"/>
      <point x="402.1976294092" y="514.228303341"/>
      <point x="472" y="384" type="curve" smooth="yes"/>
      <point x="476" y="377"/>
      <point x="479" y="376"/>
      <point x="487" y="376" type="curve" smooth="yes"/>
      <point x="503" y="376"/>
      <point x="518" y="376"/>
      <point x="534" y="376" type="curve"/>
      <point x="457" y="519"/>
      <point x="415" y="597"/>
      <point x="339" y="739" type="curve" smooth="yes"/>
      <point x="334" y="748"/>
      <point x="330" y="750"/>
      <point x="322" y="750" type="curve" smooth="yes"/>
      <point x="299" y="750"/>
      <point x="276" y="750"/>
    </contour>
  </outline>
</glyph>
<glyph name="underscore" format="2">
  <advance width="600"/>
  <unicode hex="005F"/>
  <outline>
    <contour>
      <point x="76" y="-100" type="line"/>
      <point x="76" y="-113"/>
      <point x="76" y="-126"/>
      <point x="76" y="-139" type="curve" smooth="yes"/>
      <point x="76" y="-146"/>
      <point x="80" y="-150"/>
      <point x="87" y="-150" type="curve" smooth="yes"/>
      <point x="524" y="-150" type="line"/>
      <point x="524" y="-137"/>
      <point x="524" y="-124"/>
      <point x="524" y="-111" type="curve" smooth="yes"/>
      <point x="524" y="-104"/>
      <point x="520" y="-100"/>
      <point x="513" y="-100" type="curve" smooth="yes"/>
    </contour>
  </outline>
</glyph>
<glyph name="grave" format="2">
  <advance width="600"/>
  <unicode hex="0060"/>
  <outline>
    <contour>
      <point x="276" y="720" type="curve"/>
      <point x="235" y="720"/>
      <point x="231" y="720"/>
      <point x="196" y="720" type="curve" smooth="yes"/>
      <point x="188" y="720"/>
      <point x="183" y="715"/>
      <point x="186" y="707" type="curve" smooth="yes"/>
      <point x="227" y="614"/>
      <point x="268" y="520"/>
      <point x="308" y="428" type="curve" smooth="yes"/>
      <point x="311" y="421"/>
      <point x="316" y="420"/>
      <point x="321" y="420" type="curve" smooth="yes"/>
      <point x="340" y="420"/>
      <point x="352" y="420"/>
      <point x="364" y="420" type="curve"/>
      <point x="335" y="519"/>
      <point x="304" y="620"/>
    </contour>
  </outline>
</glyph>
<glyph name="a" format="2">
  <advance width="600"/>
  <unicode hex="0061"/>
  <anchor x="306" y="526" name="top"/>
  <anchor x="293" y="0" name="bottom"/>
  <anchor x="556" y="10" name="ogonek"/>
  <anchor x="308" y="584" name="hook"/>
  <outline>
    <contour>
      <point x="485" y="361" type="curve" smooth="yes"/>
      <point x="485" y="488"/>
      <point x="428" y="536"/>
      <point x="294" y="536" type="curve" smooth="yes"/>
      <point x="206" y="536"/>
      <point x="132" y="509"/>
      <point x="123" y="500" type="curve" smooth="yes"/>
      <point x="121" y="498"/>
      <point x="120" y="496"/>
      <point x="120" y="492" type="curve" smooth="yes"/>
      <point x="120" y="479"/>
      <point x="120" y="467"/>
      <point x="120" y="454" type="curve"/>
      <point x="132" y="454" type="line"/>
      <point x="186" y="476"/>
      <point x="233" y="486"/>
      <point x="294" y="486" type="curve" smooth="yes"/>
      <point x="403" y="486"/>
      <point x="435" y="457"/>
      <point x="435" y="356" type="curve" smooth="yes"/>
      <point x="435" y="324"/>
      <point x="435" y="291"/>
      <point x="435" y="259" type="curve" smooth="yes"/>
      <point x="435" y="208"/>
      <point x="435" y="148"/>
      <point x="435" y="97" type="curve" smooth="yes"/>
      <point x="435" y="26"/>
      <point x="479" y="0"/>
      <point x="532" y="0" type="curve" smooth="yes"/>
      <point x="536" y="0"/>
      <point x="537" y="0"/>
      <point x="544" y="0" type="curve" smooth="yes"/>
      <point x="551" y="0"/>
      <point x="555" y="3"/>
      <point x="555" y="11" type="curve" smooth="yes"/>
      <point x="555" y="23"/>
      <point x="555" y="34"/>
      <point x="555" y="46" type="curve"/>
      <point x="543" y="46" type="line"/>
      <point x="540" y="46"/>
      <point x="537" y="46"/>
      <point x="534" y="46" type="curve"/>
      <point x="518" y="46"/>
      <point x="506" y="49"/>
      <point x="498" y="57" type="curve" smooth="yes"/>
      <point x="489" y="66"/>
      <point x="485" y="81"/>
      <point x="485" y="106" type="curve" smooth="yes"/>
      <point x="485" y="188"/>
      <point x="485" y="279"/>
    </contour>
    <contour>
      <point x="135" y="132" type="curve" smooth="yes"/>
      <point x="135" y="158" type="line" smooth="yes"/>
      <point x="135" y="187"/>
      <point x="143" y="210"/>
      <point x="159" y="226" type="curve" smooth="yes"/>
      <point x="177" y="244"/>
      <point x="205" y="253"/>
      <point x="242" y="253" type="curve" smooth="yes"/>
      <point x="329" y="253"/>
      <point x="377" y="253"/>
      <point x="462" y="253" type="curve"/>
      <point x="462" y="280"/>
      <point x="461" y="300"/>
      <point x="445" y="300" type="curve" smooth="yes"/>
      <point x="369" y="300"/>
      <point x="310" y="300"/>
      <point x="242" y="300" type="curve" smooth="yes"/>
      <point x="144" y="300"/>
      <point x="85" y="249"/>
      <point x="85" y="159" type="curve" smooth="yes"/>
      <point x="85" y="131" type="line" smooth="yes"/>
      <point x="85" y="41"/>
      <point x="144" y="-10"/>
      <point x="242" y="-10" type="curve" smooth="yes"/>
      <point x="327" y="-10"/>
      <point x="386" y="23"/>
      <point x="424" y="83" type="curve"/>
      <point x="454" y="83" type="line"/>
      <point x="454" y="172" type="line"/>
      <point x="381" y="66"/>
      <point x="324" y="38"/>
      <point x="242" y="38" type="curve" smooth="yes"/>
      <point x="172" y="38"/>
      <point x="135" y="71"/>
    </contour>
  </outline>
</glyph>
<glyph name="p" format="2">
  <advance width="600"/>
  <unicode hex="0070"/>
  <outline>
    <contour>
      <point x="110" y="526" type="curve"/>
      <point x="110" y="491"/>
      <point x="110" y="457"/>
      <point x="110" y="426" type="curve" smooth="yes"/>
      <point x="110" y="221"/>
      <point x="110" y="16"/>
      <point x="110" y="-189" type="curve" smooth="yes"/>
      <point x="110" y="-196"/>
      <point x="114" y="-200"/>
      <point x="121" y="-200" type="curve" smooth="yes"/>
      <point x="134" y="-200"/>
      <point x="147" y="-200"/>
      <point x="160" y="-200" type="curve"/>
      <point x="160" y="38"/>
      <point x="160" y="277"/>
      <point x="160" y="515" type="curve" smooth="yes"/>
      <point x="160" y="522"/>
      <point x="156" y="526"/>
      <point x="149" y="526" type="curve"/>
      <point x="136" y="526"/>
      <point x="123" y="526"/>
    </contour>
    <contour>
      <point x="343" y="536" type="curve" smooth="yes"/>
      <point x="268" y="536"/>
      <point x="214" y="499"/>
      <point x="172" y="434" type="curve"/>
      <point x="145" y="434" type="line"/>
      <point x="145" y="342" type="line"/>
      <point x="205" y="447"/>
      <point x="264" y="489"/>
      <point x="334" y="489" type="curve" smooth="yes"/>
      <point x="376" y="489"/>
      <point x="410" y="476"/>
      <point x="434" y="452" type="curve" smooth="yes"/>
      <point x="460" y="425"/>
      <point x="475" y="385"/>
      <point x="475" y="333" type="curve" smooth="yes"/>
      <point x="475" y="203" type="line" smooth="yes"/>
      <point x="475" y="96"/>
      <point x="420" y="37"/>
      <point x="334" y="37" type="curve" smooth="yes"/>
      <point x="255" y="37"/>
      <point x="191" y="69"/>
      <point x="145" y="152" type="curve"/>
      <point x="145" y="68" type="line"/>
      <point x="172" y="68" type="line"/>
      <point x="213" y="12"/>
      <point x="266" y="-10"/>
      <point x="339" y="-10" type="curve" smooth="yes"/>
      <point x="448" y="-10"/>
      <point x="525" y="68"/>
      <point x="525" y="196" type="curve" smooth="yes"/>
      <point x="525" y="340" type="line" smooth="yes"/>
      <point x="525" y="462"/>
      <point x="448" y="536"/>
    </contour>
  </outline>
</glyph>
<glyph name="asciitilde" format="2">
  <advance width="600"/>
  <unicode hex="007E"/>
  <outline>
    <contour>
      <point x="424" y="275" type="curve" smooth="yes"/>
      <point x="343" y="275"/>
      <point x="272" y="375"/>
      <point x="175" y="375" type="curve" smooth="yes"/>
      <point x="122" y="375"/>
      <point x="90" y="357"/>
      <point x="65" y="331" type="curve" smooth="yes"/>
      <point x="57" y="323"/>
      <point x="57" y="318"/>
      <point x="57" y="314" type="curve" smooth="yes"/>
      <point x="57" y="300"/>
      <point x="57" y="286"/>
      <point x="57" y="274" type="curve"/>
      <point x="69" y="274" type="line"/>
      <point x="104" y="313"/>
      <point x="130" y="328"/>
      <point x="176" y="328" type="curve" smooth="yes"/>
      <point x="257" y="328"/>
      <point x="328" y="228"/>
      <point x="425" y="228" type="curve" smooth="yes"/>
      <point x="478" y="228"/>
      <point x="510" y="246"/>
      <point x="535" y="272" type="curve" smooth="yes"/>
      <point x="543" y="280"/>
      <point x="543" y="285"/>
      <point x="543" y="289" type="curve" smooth="yes"/>
      <point x="543" y="303"/>
      <point x="543" y="317"/>
      <point x="543" y="329" type="curve"/>
      <point x="531" y="329" type="line"/>
      <point x="496" y="290"/>
      <point x="470" y="275"/>
    </contour>
  </outline>
</glyph>
<glyph name="registered" format="2">
  <advance width="600"/>
  <unicode hex="00AE"/>
  <outline>
    <contour>
      <point x="300" y="760" type="curve" smooth="yes"/>
      <point x="143" y="760"/>
      <point x="53" y="682"/>
      <point x="53" y="546" type="curve" smooth="yes"/>
      <point x="53" y="416" type="line" smooth="yes"/>
      <point x="53" y="265"/>
      <point x="155" y="202"/>
      <point x="300" y="202" type="curve" smooth="yes"/>
      <point x="457" y="202"/>
      <point x="547" y="276"/>
      <point x="547" y="406" type="curve" smooth="yes"/>
      <point x="547" y="536" type="line" smooth="yes"/>
      <point x="547" y="680"/>
      <point x="460" y="760"/>
    </contour>
    <contour>
      <point x="300" y="713" type="curve" smooth="yes"/>
      <point x="366" y="713"/>
      <point x="417" y="698"/>
      <point x="451" y="669" type="curve"/>
      <point x="482" y="641"/>
      <point x="499" y="602"/>
      <point x="499" y="552" type="curve" smooth="yes"/>
      <point x="499" y="399" type="line" smooth="yes"/>
      <point x="499" y="302"/>
      <point x="427" y="249"/>
      <point x="300" y="249" type="curve" smooth="yes"/>
      <point x="236" y="249"/>
      <point x="186" y="263"/>
      <point x="152" y="288" type="curve"/>
      <point x="119" y="314"/>
      <point x="101" y="352"/>
      <point x="101" y="400" type="curve" smooth="yes"/>
      <point x="101" y="553" type="line" smooth="yes"/>
      <point x="101" y="656"/>
      <point x="173" y="713"/>
    </contour>
    <contour>
      <point x="212" y="608" type="line"/>
      <point x="196" y="608" type="line"/>
      <point x="196" y="518"/>
      <point x="196" y="428"/>
      <point x="196" y="338" type="curve" smooth="yes"/>
      <point x="196" y="331"/>
      <point x="200" y="327"/>
      <point x="207" y="327" type="curve" smooth="yes"/>
      <point x="217" y="327"/>
      <point x="229" y="327"/>
      <point x="239" y="327" type="curve"/>
      <point x="239" y="355"/>
      <point x="239" y="382"/>
      <point x="239" y="410" type="curve" smooth="yes"/>
      <point x="239" y="473"/>
      <point x="239" y="535"/>
      <point x="239" y="598" type="curve" smooth="yes"/>
      <point x="239" y="604"/>
      <point x="236" y="608"/>
      <point x="224" y="608" type="curve"/>
    </contour>
    <contour>
      <point x="323" y="635" type="curve" smooth="yes"/>
      <point x="273" y="635"/>
      <point x="223" y="635"/>
      <point x="173" y="635" type="curve"/>
      <point x="173" y="625"/>
      <point x="173" y="614"/>
      <point x="173" y="604" type="curve" smooth="yes"/>
      <point x="173" y="597"/>
      <point x="177" y="593"/>
      <point x="184" y="593" type="curve" smooth="yes"/>
      <point x="234" y="593"/>
      <point x="283" y="593"/>
      <point x="333" y="593" type="curve" smooth="yes"/>
      <point x="349" y="593"/>
      <point x="360" y="590"/>
      <point x="367" y="583" type="curve"/>
      <point x="374" y="576"/>
      <point x="377" y="566"/>
      <point x="377" y="552" type="curve" smooth="yes"/>
      <point x="377" y="520" type="line" smooth="yes"/>
      <point x="377" y="496"/>
      <point x="359" y="479"/>
      <point x="333" y="479" type="curve" smooth="yes"/>
      <point x="224" y="479" type="line"/>
      <point x="224" y="454" type="line"/>
      <point x="224" y="443" type="line"/>
      <point x="224" y="440"/>
      <point x="227" y="437"/>
      <point x="230" y="437" type="curve" smooth="yes"/>
      <point x="263" y="437"/>
      <point x="295" y="437"/>
      <point x="327" y="437" type="curve" smooth="yes"/>
      <point x="385" y="437"/>
      <point x="420" y="474"/>
      <point x="420" y="525" type="curve" smooth="yes"/>
      <point x="420" y="555" type="line" smooth="yes"/>
      <point x="420" y="608"/>
      <point x="385" y="635"/>
    </contour>
    <contour>
      <point x="343" y="466" type="curve"/>
      <point x="307" y="447" type="line"/>
      <point x="318" y="419"/>
      <point x="329" y="392"/>
      <point x="340" y="364" type="curve" smooth="yes"/>
      <point x="354" y="329"/>
      <point x="369" y="324"/>
      <point x="401" y="324" type="curve" smooth="yes"/>
      <point x="409" y="324" type="line" smooth="yes"/>
      <point x="417" y="324"/>
      <point x="420" y="327"/>
      <point x="420" y="335" type="curve" smooth="yes"/>
      <point x="420" y="345"/>
      <point x="420" y="355"/>
      <point x="420" y="365" type="curve"/>
      <point x="417" y="365" type="line"/>
      <point x="404" y="365"/>
      <point x="410" y="365"/>
      <point x="397" y="365" type="curve" smooth="yes"/>
      <point x="385" y="365"/>
      <point x="382" y="367"/>
      <point x="378" y="377" type="curve" smooth="yes"/>
      <point x="366" y="407"/>
      <point x="355" y="436"/>
    </contour>
  </outline>
</glyph>
<glyph name="oslash" format="2">
  <advance width="600"/>
  <unicode hex="00F8"/>
  <anchor x="300" y="557" name="top"/>
  <outline>
    <contour>
      <point x="490" y="582" type="curve"/>
      <point x="471" y="582"/>
      <point x="465" y="582"/>
      <point x="449" y="582" type="curve" smooth="yes"/>
      <point x="438" y="582"/>
      <point x="436" y="580"/>
      <point x="429" y="567" type="curve"/>
      <point x="419" y="548"/>
      <point x="409" y="529"/>
      <point x="399" y="510" type="curve"/>
      <point x="397" y="505"/>
      <point x="396" y="499"/>
      <point x="394" y="494" type="curve"/>
      <point x="334" y="381"/>
      <point x="274" y="268"/>
      <point x="214" y="155" type="curve" smooth="yes"/>
      <point x="193" y="116"/>
      <point x="189" y="103"/>
      <point x="188" y="86" type="curve"/>
      <point x="195" y="89" type="line"/>
      <point x="168" y="89" type="line"/>
      <point x="158" y="37" type="line"/>
      <point x="142" y="6"/>
      <point x="126" y="-25"/>
      <point x="110" y="-56" type="curve"/>
      <point x="120" y="-56"/>
      <point x="136" y="-56"/>
      <point x="150" y="-56" type="curve" smooth="yes"/>
      <point x="157" y="-56"/>
      <point x="160" y="-55"/>
      <point x="165" y="-46" type="curve" smooth="yes"/>
      <point x="178" y="-22"/>
      <point x="190" y="1"/>
      <point x="203" y="25" type="curve"/>
      <point x="203" y="28"/>
      <point x="202" y="32"/>
      <point x="202" y="35" type="curve"/>
      <point x="259" y="143"/>
      <point x="317" y="252"/>
      <point x="374" y="360" type="curve" smooth="yes"/>
      <point x="398" y="406"/>
      <point x="406" y="429"/>
      <point x="409" y="446" type="curve"/>
      <point x="395" y="443" type="line"/>
      <point x="432" y="443" type="line"/>
      <point x="437" y="480" type="line"/>
      <point x="455" y="514"/>
      <point x="472" y="548"/>
    </contour>
    <component base="o"/>
  </outline>
</glyph>
<glyph name="Hbar" format="2">
  <advance width="600"/>
  <unicode hex="0126"/>
  <outline>
    <contour>
      <point x="20" y="570" type="line"/>
      <point x="20" y="558"/>
      <point x="20" y="546"/>
      <point x="20" y="534" type="curve" smooth="yes"/>
      <point x="20" y="527"/>
      <point x="24" y="523"/>
      <point x="31" y="523" type="curve" smooth="yes"/>
      <point x="580" y="523" type="line"/>
      <point x="580" y="535"/>
      <point x="580" y="547"/>
      <point x="580" y="559" type="curve" smooth="yes"/>
      <point x="580" y="566"/>
      <point x="576" y="570"/>
      <point x="569" y="570" type="curve"/>
    </contour>
    <component base="H"/>
  </outline>
</glyph>
<glyph name="Ldot" format="2">
  <advance width="600"/>
  <unicode hex="013F"/>
  <outline>
    <contour>
      <point x="390" y="440" type="curve"/>
      <point x="390" y="371" type="line" smooth="yes"/>
      <point x="390" y="364"/>
      <point x="394" y="360"/>
      <point x="401" y="360" type="curve" smooth="yes"/>
      <point x="424" y="360"/>
      <point x="447" y="360"/>
      <point x="470" y="360" type="curve"/>
      <point x="470" y="429" type="line" smooth="yes"/>
      <point x="470" y="436"/>
      <point x="466" y="440"/>
      <point x="459" y="440" type="curve" smooth="yes"/>
      <point x="436" y="440"/>
      <point x="413" y="440"/>
    </contour>
    <component base="L"/>
  </outline>
</glyph>
<glyph name="Dzcaron" format="2">
  <advance width="600"/>
  <unicode hex="01C5"/>
  <outline>
    <contour>
      <point x="146" y="700" type="curve" smooth="yes"/>
      <point x="106" y="700"/>
      <point x="40" y="700"/>
      <point x="20" y="700" type="curve"/>
      <point x="20" y="688"/>
      <point x="20" y="676"/>
      <point x="20" y="664" type="curve" smooth="yes"/>
      <point x="20" y="657"/>
      <point x="24" y="653"/>
      <point x="31" y="653" type="curve" smooth="yes"/>
      <point x="47" y="653"/>
      <point x="108" y="653"/>
      <point x="149" y="653" type="curve" smooth="yes"/>
      <point x="182" y="653"/>
      <point x="206" y="647"/>
      <point x="220" y="631" type="curve" smooth="yes"/>
      <point x="235" y="615"/>
      <point x="241" y="591"/>
      <point x="241" y="555" type="curve" smooth="yes"/>
      <point x="241" y="154" type="line" smooth="yes"/>
      <point x="241" y="66"/>
      <point x="221" y="47"/>
      <point x="144" y="47" type="curve" smooth="yes"/>
      <point x="120" y="47"/>
      <point x="109" y="47"/>
      <point x="102" y="47" type="curve"/>
      <point x="102" y="217"/>
      <point x="102" y="387"/>
      <point x="102" y="556" type="curve" smooth="yes"/>
      <point x="102" y="594"/>
      <point x="102" y="632"/>
      <point x="102" y="669" type="curve"/>
      <point x="109" y="680" type="line"/>
      <point x="50" y="700" type="line"/>
      <point x="50" y="457"/>
      <point x="50" y="234"/>
      <point x="50" y="11" type="curve" smooth="yes"/>
      <point x="50" y="4"/>
      <point x="54" y="0"/>
      <point x="61" y="0" type="curve" smooth="yes"/>
      <point x="72" y="0"/>
      <point x="109" y="0"/>
      <point x="147" y="0" type="curve" smooth="yes"/>
      <point x="249" y="0"/>
      <point x="293" y="33"/>
      <point x="293" y="154" type="curve" smooth="yes"/>
      <point x="293" y="554" type="line" smooth="yes"/>
      <point x="293" y="653"/>
      <point x="253" y="700"/>
    </contour>
    <contour>
      <point x="327" y="526" type="line"/>
      <point x="327" y="514"/>
      <point x="327" y="502"/>
      <point x="327" y="490" type="curve" smooth="yes"/>
      <point x="327" y="483"/>
      <point x="331" y="479"/>
      <point x="338" y="479" type="curve" smooth="yes"/>
      <point x="534" y="479" type="line"/>
      <point x="534" y="467" type="line"/>
      <point x="519" y="442"/>
      <point x="506" y="415"/>
      <point x="492" y="386" type="curve" smooth="yes"/>
      <point x="439" y="281"/>
      <point x="384" y="175"/>
      <point x="327" y="67" type="curve"/>
      <point x="327" y="11" type="line" smooth="yes"/>
      <point x="327" y="4"/>
      <point x="331" y="0"/>
      <point x="338" y="0" type="curve" smooth="yes"/>
      <point x="582" y="0" type="line"/>
      <point x="582" y="12"/>
      <point x="582" y="24"/>
      <point x="582" y="36" type="curve" smooth="yes"/>
      <point x="582" y="43"/>
      <point x="578" y="47"/>
      <point x="571" y="47" type="curve"/>
      <point x="375" y="47" type="line"/>
      <point x="375" y="58" type="line"/>
      <point x="389" y="83"/>
      <point x="402" y="108"/>
      <point x="416" y="135" type="curve" smooth="yes"/>
      <point x="471" y="242"/>
      <point x="527" y="349"/>
      <point x="582" y="459" type="curve"/>
      <point x="582" y="515" type="line" smooth="yes"/>
      <point x="582" y="522"/>
      <point x="578" y="526"/>
      <point x="571" y="526" type="curve"/>
    </contour>
    <contour>
      <point x="485" y="629" type="curve"/>
      <point x="516" y="666"/>
      <point x="586" y="751"/>
      <point x="618" y="794" type="curve" smooth="yes"/>
      <point x="634" y="816"/>
      <point x="635" y="817"/>
      <point x="635" y="822" type="curve" smooth="yes"/>
      <point x="635" y="827"/>
      <point x="633" y="831"/>
      <point x="625" y="831" type="curve" smooth="yes"/>
      <point x="590" y="831" type="line"/>
      <point x="558" y="789"/>
      <point x="512" y="734"/>
      <point x="444" y="653" type="curve"/>
      <point x="485" y="674" type="line"/>
      <point x="442" y="674" type="line"/>
      <point x="483" y="653" type="line"/>
      <point x="420" y="728"/>
      <point x="381" y="787"/>
      <point x="358" y="818" type="curve" smooth="yes"/>
      <point x="350" y="829"/>
      <point x="343" y="831"/>
      <point x="328" y="831" type="curve" smooth="yes"/>
      <point x="312" y="831"/>
      <point x="307" y="831"/>
      <point x="291" y="831" type="curve"/>
      <point x="336" y="771"/>
      <point x="400" y="681"/>
      <point x="425" y="651" type="curve" smooth="yes"/>
      <point x="442" y="631"/>
      <point x="448" y="629"/>
      <point x="458" y="629" type="curve" smooth="yes"/>
      <point x="466" y="629"/>
      <point x="473" y="629"/>
    </contour>
  </outline>
</glyph>
<glyph name="gravecomb" format="2">
  <unicode hex="0300"/>
  <anchor x="0" y="537" name="_top"/>
  <outline>
    <contour>
      <point x="-96" y="835" type="curve"/>
      <point x="-119" y="835"/>
      <point x="-129" y="835"/>
      <point x="-148" y="835" type="curve" smooth="yes"/>
      <point x="-158" y="835"/>
      <point x="-160" y="825"/>
      <point x="-154" y="817" type="curve" smooth="yes"/>
      <point x="-107" y="756"/>
      <point x="-82" y="724"/>
      <point x="-28" y="655" type="curve" smooth="yes"/>
      <point x="-25" y="651"/>
      <point x="-19" y="647"/>
      <point x="-11" y="647" type="curve" smooth="yes"/>
      <point x="3" y="647"/>
      <point x="15" y="647"/>
      <point x="27" y="647" type="curve"/>
      <point x="-12" y="707"/>
      <point x="-55" y="772"/>
    </contour>
  </outline>
</glyph>
<glyph name="acutecomb" format="2">
  <unicode hex="0301"/>
  <note>
combining acute accent
</note>
  <anchor x="0" y="537" name="_top"/>
  <anchor x="0" y="533" name="_dot"/>
  <anchor x="-124" y="761" name="dot"/>
  <outline>
    <contour>
      <point x="100" y="835" type="curve"/>
      <point x="59" y="772"/>
      <point x="16" y="707"/>
      <point x="-23" y="647" type="curve"/>
      <point x="-11" y="647"/>
      <point x="-1" y="647"/>
      <point x="13" y="647" type="curve" smooth="yes"/>
      <point x="21" y="647"/>
      <point x="27" y="651"/>
      <point x="30" y="655" type="curve" smooth="yes"/>
      <point x="84" y="724"/>
      <point x="109" y="756"/>
      <point x="156" y="817" type="curve" smooth="yes"/>
      <point x="162" y="825"/>
      <point x="160" y="835"/>
      <point x="150" y="835" type="curve" smooth="yes"/>
      <point x="131" y="835"/>
      <point x="123" y="835"/>
    </contour>
  </outline>
</glyph>
<glyph name="minute" format="2">
  <advance width="600"/>
  <unicode hex="2032"/>
  <outline>
    <contour>
      <point x="230" y="447" type="curve" smooth="yes"/>
      <point x="235" y="447"/>
      <point x="240" y="449"/>
      <point x="244" y="455" type="curve" smooth="yes"/>
      <point x="306" y="554"/>
      <point x="365" y="646"/>
      <point x="421" y="737" type="curve" smooth="yes"/>
      <point x="426" y="745"/>
      <point x="421" y="750"/>
      <point x="413" y="750" type="curve" smooth="yes"/>
      <point x="389" y="750"/>
      <point x="351" y="750"/>
      <point x="329" y="750" type="curve"/>
      <point x="274" y="644"/>
      <point x="231" y="561"/>
      <point x="170" y="447" type="curve"/>
      <point x="191" y="447"/>
      <point x="218" y="447"/>
    </contour>
  </outline>
</glyph>
<glyph name="newsheqel" format="2">
  <advance width="600"/>
  <unicode hex="20AA"/>
  <outline>
    <contour>
      <point x="286" y="700" type="curve" smooth="yes"/>
      <point x="222" y="700"/>
      <point x="95" y="700"/>
      <point x="55" y="700" type="curve"/>
      <point x="55" y="697"/>
      <point x="55" y="695"/>
      <point x="55" y="692" type="curve" smooth="yes"/>
      <point x="55" y="673"/>
      <point x="72" y="652"/>
      <point x="90" y="652" type="curve" smooth="yes"/>
      <point x="98" y="652"/>
      <point x="223" y="652"/>
      <point x="281" y="652" type="curve" smooth="yes"/>
      <point x="307" y="652"/>
      <point x="325" y="646"/>
      <point x="336" y="634" type="curve"/>
      <point x="345" y="623"/>
      <point x="349" y="607"/>
      <point x="349" y="585" type="curve" smooth="yes"/>
      <point x="349" y="571"/>
      <point x="349" y="202"/>
      <point x="349" y="148" type="curve"/>
      <point x="359" y="148"/>
      <point x="371" y="148"/>
      <point x="381" y="148" type="curve" smooth="yes"/>
      <point x="391" y="148"/>
      <point x="395" y="152"/>
      <point x="395" y="162" type="curve" smooth="yes"/>
      <point x="395" y="238"/>
      <point x="395" y="536"/>
      <point x="395" y="591" type="curve" smooth="yes"/>
      <point x="395" y="664"/>
      <point x="357" y="700"/>
    </contour>
    <contour>
      <point x="115" y="700" type="line"/>
      <point x="55" y="700" type="line"/>
      <point x="55" y="678"/>
      <point x="55" y="25"/>
      <point x="55" y="11" type="curve" smooth="yes"/>
      <point x="55" y="4"/>
      <point x="59" y="0"/>
      <point x="66" y="0" type="curve" smooth="yes"/>
      <point x="76" y="0"/>
      <point x="95" y="0"/>
      <point x="105" y="0" type="curve"/>
      <point x="105" y="10"/>
      <point x="105" y="75"/>
      <point x="105" y="98" type="curve" smooth="yes"/>
      <point x="105" y="121"/>
      <point x="105" y="469"/>
      <point x="105" y="483" type="curve" smooth="yes"/>
      <point x="105" y="497"/>
      <point x="105" y="636"/>
      <point x="105" y="652" type="curve"/>
    </contour>
    <contour>
      <point x="495" y="700" type="curve"/>
      <point x="495" y="637"/>
      <point x="495" y="549"/>
      <point x="495" y="490" type="curve" smooth="yes"/>
      <point x="495" y="431"/>
      <point x="495" y="198"/>
      <point x="495" y="137" type="curve" smooth="yes"/>
      <point x="495" y="65"/>
      <point x="473" y="48"/>
      <point x="399" y="48" type="curve" smooth="yes"/>
      <point x="352" y="48"/>
      <point x="253" y="48"/>
      <point x="231" y="48" type="curve"/>
      <point x="251" y="28" type="line"/>
      <point x="251" y="119"/>
      <point x="251" y="531"/>
      <point x="251" y="541" type="curve" smooth="yes"/>
      <point x="251" y="548"/>
      <point x="247" y="552"/>
      <point x="240" y="552" type="curve"/>
      <point x="230" y="552"/>
      <point x="215" y="552"/>
      <point x="205" y="552" type="curve"/>
      <point x="205" y="542"/>
      <point x="205" y="417"/>
      <point x="205" y="407" type="curve" smooth="yes"/>
      <point x="205" y="397"/>
      <point x="205" y="69"/>
      <point x="205" y="38" type="curve" smooth="yes"/>
      <point x="205" y="7"/>
      <point x="216" y="0"/>
      <point x="242" y="0" type="curve" smooth="yes"/>
      <point x="401" y="0" type="line" smooth="yes"/>
      <point x="505" y="0"/>
      <point x="545" y="36"/>
      <point x="545" y="141" type="curve" smooth="yes"/>
      <point x="545" y="198"/>
      <point x="545" y="679"/>
      <point x="545" y="689" type="curve" smooth="yes"/>
      <point x="545" y="696"/>
      <point x="541" y="700"/>
      <point x="534" y="700" type="curve"/>
      <point x="524" y="700"/>
      <point x="505" y="700"/>
    </contour>
  </outline>
</glyph>
<glyph name="emptyset" format="2">
  <advance width="600"/>
  <unicode hex="2205"/>
  <outline>
    <contour>
      <point x="301" y="652" type="curve" smooth="yes"/>
      <point x="151" y="652"/>
      <point x="15" y="568"/>
      <point x="15" y="359" type="curve" smooth="yes"/>
      <point x="15" y="306" type="line" smooth="yes"/>
      <point x="15" y="107"/>
      <point x="146" y="30"/>
      <point x="299" y="30" type="curve" smooth="yes"/>
      <point x="452" y="30"/>
      <point x="585" y="107"/>
      <point x="585" y="305" type="curve" smooth="yes"/>
      <point x="585" y="359" type="line" smooth="yes"/>
      <point x="585" y="568"/>
      <point x="451" y="652"/>
    </contour>
    <contour>
      <point x="65" y="292" type="curve" smooth="yes"/>
      <point x="65" y="367" type="line" smooth="yes"/>
      <point x="65" y="527"/>
      <point x="159" y="602"/>
      <point x="301" y="602" type="curve" smooth="yes"/>
      <point x="374" y="602"/>
      <point x="423" y="587"/>
      <point x="463" y="550" type="curve" smooth="yes"/>
      <point x="503" y="513"/>
      <point x="535" y="468"/>
      <point x="535" y="367" type="curve" smooth="yes"/>
      <point x="535" y="297" type="line" smooth="yes"/>
      <point x="535" y="151"/>
      <point x="438" y="80"/>
      <point x="299" y="80" type="curve" smooth="yes"/>
      <point x="216" y="80"/>
      <point x="163" y="102"/>
      <point x="127" y="134" type="curve" smooth="yes"/>
      <point x="91" y="166"/>
      <point x="65" y="217"/>
    </contour>
    <contour>
      <point x="516" y="714" type="curve"/>
      <point x="499" y="714"/>
      <point x="488" y="714"/>
      <point x="471" y="714" type="curve" smooth="yes"/>
      <point x="465" y="714"/>
      <point x="461" y="712"/>
      <point x="459" y="707" type="curve" smooth="yes"/>
      <point x="313" y="417"/>
      <point x="238" y="265"/>
      <point x="86" y="-26" type="curve"/>
      <point x="104" y="-26"/>
      <point x="113" y="-26"/>
      <point x="130" y="-26" type="curve" smooth="yes"/>
      <point x="136" y="-26"/>
      <point x="142" y="-23"/>
      <point x="145" y="-15" type="curve"/>
      <point x="293" y="274"/>
      <point x="371" y="425"/>
    </contour>
  </outline>
</glyph>
<glyph name="bracketangleleft" format="2">
  <advance width="600"/>
  <unicode hex="27E8"/>
  <outline>
    <contour>
      <point x="427" y="20" type="line"/>
      <point x="360" y="132"/>
      <point x="278" y="269"/>
      <point x="226" y="359" type="curve"/>
      <point x="279" y="448"/>
      <point x="369" y="602"/>
      <point x="427" y="700" type="curve"/>
      <point x="427" y="712" type="line"/>
      <point x="411" y="712"/>
      <point x="402" y="712"/>
      <point x="387" y="712" type="curve" smooth="yes"/>
      <point x="371" y="712"/>
      <point x="366" y="707"/>
      <point x="360" y="697" type="curve" smooth="yes"/>
      <point x="332" y="648"/>
      <point x="246" y="500"/>
      <point x="184" y="395" type="curve"/>
      <point x="184" y="382"/>
      <point x="184" y="342"/>
      <point x="184" y="329" type="curve" smooth="yes"/>
      <point x="184" y="321"/>
      <point x="186" y="317"/>
      <point x="193" y="305" type="curve" smooth="yes"/>
      <point x="230" y="241"/>
      <point x="336" y="63"/>
      <point x="359" y="24" type="curve" smooth="yes"/>
      <point x="367" y="10"/>
      <point x="372" y="8"/>
      <point x="385" y="8" type="curve" smooth="yes"/>
      <point x="398" y="8"/>
      <point x="410" y="8"/>
      <point x="427" y="8" type="curve"/>
    </contour>
  </outline>
</glyph>
<glyph name="h.italic" format="2">
  <advance width="600"/>
  <anchor x="135" y="730" name="top"/>
  <anchor x="320" y="0" name="bottom"/>
  <outline>
    <contour>
      <point x="110" y="750" type="curve"/>
      <point x="110" y="734"/>
      <point x="110" y="698"/>
      <point x="110" y="650" type="curve" smooth="yes"/>
      <point x="110" y="438"/>
      <point x="110" y="223"/>
      <point x="110" y="11" type="curve" smooth="yes"/>
      <point x="110" y="4"/>
      <point x="114" y="0"/>
      <point x="121" y="0" type="curve" smooth="yes"/>
      <point x="134" y="0"/>
      <point x="147" y="0"/>
      <point x="160" y="0" type="curve"/>
      <point x="160" y="245"/>
      <point x="160" y="494"/>
      <point x="160" y="739" type="curve" smooth="yes"/>
      <point x="160" y="746"/>
      <point x="156" y="750"/>
      <point x="149" y="750" type="curve" smooth="yes"/>
      <point x="136" y="750"/>
      <point x="123" y="750"/>
    </contour>
    <contour>
      <point x="356" y="536" type="curve" smooth="yes"/>
      <point x="281" y="536"/>
      <point x="224" y="496"/>
      <point x="172" y="435" type="curve"/>
      <point x="147" y="435" type="line"/>
      <point x="147" y="363" type="line"/>
      <point x="223" y="450"/>
      <point x="282" y="489"/>
      <point x="346" y="489" type="curve" smooth="yes"/>
      <point x="403" y="489"/>
      <point x="440" y="461"/>
      <point x="440" y="389" type="curve" smooth="yes"/>
      <point x="440" y="293"/>
      <point x="440" y="192"/>
      <point x="440" y="101" type="curve" smooth="yes"/>
      <point x="440" y="29"/>
      <point x="477" y="0"/>
      <point x="539" y="0" type="curve" smooth="yes"/>
      <point x="544" y="0"/>
      <point x="547" y="0"/>
      <point x="554" y="0" type="curve" smooth="yes"/>
      <point x="561" y="0"/>
      <point x="565" y="3"/>
      <point x="565" y="11" type="curve" smooth="yes"/>
      <point x="565" y="23"/>
      <point x="565" y="34"/>
      <point x="565" y="46" type="curve"/>
      <point x="553" y="46" type="line"/>
      <point x="548" y="46"/>
      <point x="544" y="46"/>
      <point x="539" y="46" type="curve" smooth="yes"/>
      <point x="523" y="46"/>
      <point x="509" y="50"/>
      <point x="501" y="58" type="curve" smooth="yes"/>
      <point x="493" y="66"/>
      <point x="490" y="80"/>
      <point x="490" y="101" type="curve" smooth="yes"/>
      <point x="490" y="198"/>
      <point x="490" y="296"/>
      <point x="490" y="395" type="curve" smooth="yes"/>
      <point x="490" y="476"/>
      <point x="446" y="536"/>
    </contour>
  </outline>
</glyph>
<glyph name="macroncomb.case" format="2">
  <anchor x="0" y="711" name="_top"/>
  <anchor x="0" y="836" name="top"/>
  <outline>
    <contour>
      <point x="-174" y="862" type="line"/>
      <point x="-174" y="849"/>
      <point x="-174" y="836"/>
      <point x="-174" y="823" type="curve" smooth="yes"/>
      <point x="-174" y="816"/>
      <point x="-170" y="812"/>
      <point x="-163" y="812" type="curve" smooth="yes"/>
      <point x="174" y="812" type="line"/>
      <point x="174" y="825"/>
      <point x="174" y="838"/>
      <point x="174" y="851" type="curve" smooth="yes"/>
      <point x="174" y="858"/>
      <point x="170" y="862"/>
      <point x="163" y="862" type="curve" smooth="yes"/>
    </contour>
  </outline>
</glyph>
<glyph name="tildecombviet.case" format="2">
  <anchor x="0" y="712" name="_top"/>
  <anchor x="1" y="712" name="_tildeviet"/>
  <outline>
    <contour>
      <point x="72" y="853" type="curve" smooth="yes"/>
      <point x="25" y="853"/>
      <point x="-15" y="918"/>
      <point x="-70" y="918" type="curve" smooth="yes"/>
      <point x="-96" y="918"/>
      <point x="-113" y="910"/>
      <point x="-130" y="893" type="curve" smooth="yes"/>
      <point x="-137" y="886"/>
      <point x="-137" y="881"/>
      <point x="-137" y="878" type="curve" smooth="yes"/>
      <point x="-137" y="864"/>
      <point x="-137" y="845"/>
      <point x="-137" y="833" type="curve"/>
      <point x="-126" y="833" type="line"/>
      <point x="-110" y="856"/>
      <point x="-94" y="867"/>
      <point x="-73" y="867" type="curve" smooth="yes"/>
      <point x="-26" y="867"/>
      <point x="15" y="802"/>
      <point x="73" y="802" type="curve" smooth="yes"/>
      <point x="99" y="802"/>
      <point x="116" y="808"/>
      <point x="130" y="827" type="curve" smooth="yes"/>
      <point x="136" y="835"/>
      <point x="137" y="838"/>
      <point x="137" y="842" type="curve" smooth="yes"/>
      <point x="137" y="857"/>
      <point x="137" y="875"/>
      <point x="137" y="887" type="curve"/>
      <point x="126" y="887" type="line"/>
      <point x="109" y="859"/>
      <point x="95" y="853"/>
    </contour>
  </outline>
</glyph>
